<?xml version="1.0"?><svg width="640" height="480" xmlns="http://www.w3.org/2000/svg">
 <title>International Law Symbol</title>
 <metadata id="metadata40">image/svg+xmlInternational Criminal Court logo scale justice blue plant vine tree</metadata>
 <g>
  <title>Layer 1</title>
  <g id="layer1">
   <g id="g2588">
    <path d="m534.559021,218.473999c0,0 0,0 -0.231995,0l-2.781006,-5.214996l-0.116028,0l-83.789001,-152.164001l-237.922989,0l-0.811005,1.622002l-85.64299,155.756996l0.230988,0l-0.11499,0c-0.115997,0 -0.115997,0 -0.115997,0c0,0 0,0.115997 0.115997,0.231995l-0.115997,0.115997l0.346985,0c5.331009,5.910004 83.442001,88.192017 172.32901,0l0.347992,0l-0.115997,-0.231995c0.115997,0 0.115997,0 0.115997,-0.115997l-0.115997,0l0,0l0,0l-1.738007,-3.360992l-1.042999,-1.854004l-0.115997,0l-80.543991,-146.486l0.115997,-0.231003l110.560013,0c0,0.695 -0.812012,11.473 -14.603027,182.99099c-0.926971,23.757019 -11.008972,31.522003 -18.889984,33.956024l-87.845001,0c-7.417007,0 -13.326996,5.561981 -13.326996,12.399994c0,6.837006 5.909988,12.283997 13.326996,12.283997l256.002014,0c7.300995,0 13.327972,-5.446991 13.327972,-12.283997c0,-6.838013 -6.026978,-12.399994 -13.327972,-12.399994l-90.047028,0c-7.995972,-2.318024 -18.194977,-10.199005 -19.121979,-33.956024c-13.675018,-171.51799 -14.486023,-182.29599 -14.60202,-182.99099l110.212006,0l-80.776001,146.717003l0,0l-2.781006,5.214996l0.116028,0l0,0l-0.232025,0c0.115997,0.115997 0.115997,0.115997 0.115997,0.115997l-0.115997,0.231995l0.348022,0c89.350983,88.192017 167.692993,5.910004 173.023987,0l0.348022,0l-0.116028,-0.115997c0.116028,-0.115997 0.116028,-0.231995 0.116028,-0.231995l0,0zm-247.194031,-5.214996l-155.177994,0l77.531006,-141.039001l77.646988,141.039001zm82.39801,0l77.761993,-141.270004l77.878998,141.270004l-155.640991,0" id="path26" fill-rule="nonzero" fill="#3f3f3f"/>
    <path d="m412.758026,498.813049c0,0 -67.911804,-78.805511 -147.528503,-56.786346c-36.621338,14.94986 -58.177002,25.49588 -69.997803,27.813751c-11.705017,2.085999 -39.286911,4.287903 -56.091019,-7.069336c30.826828,28.161377 59.451797,29.89978 80.543839,25.959412c21.092056,-4.056152 42.184204,-21.207947 47.630981,-25.611694c5.562744,-4.287964 25.611816,-28.161438 64.551025,-12.747894c28.161346,13.211395 63.971497,52.034698 69.997803,58.988129c10.893677,-10.546021 10.893677,-10.546021 10.893677,-10.546021" id="path28" fill-rule="nonzero" fill="#3f3f3f"/>
    <path d="m264.7659,440.520233c-0.115784,0 -31.522156,13.211456 -31.522156,13.211456c-18.426575,7.880585 -30.595093,12.979736 -38.359772,14.486267c-3.59259,0.695313 -35.810089,6.142212 -54.816116,-6.837494l-1.9702,2.433685c0,0.115845 0.115891,0.23175 0.115891,0.23175c25.14827,22.830444 52.614304,31.638184 81.818741,26.191223c14.022705,-2.665466 30.247375,-11.241333 48.094513,-25.7276c0.231689,-0.115906 2.317749,-1.970215 2.317749,-1.970215c7.301086,-6.605713 26.654846,-24.221008 60.842468,-10.661896c27.234314,12.747894 62.117371,49.948822 69.302582,58.524689l1.158844,1.27478l13.211517,-12.747925l-1.042999,-1.158875c-0.695313,-0.811279 -69.418396,-79.269104 -149.151062,-57.249847zm-69.186584,30.826813c7.99649,-1.506592 20.280914,-6.721741 38.823303,-14.718048l31.406311,-13.095734c74.169922,-20.512543 138.605011,48.442261 144.747162,55.163879c-1.622375,1.622498 -6.9534,6.72168 -8.691742,8.344177c-8.923615,-10.198425 -42.415894,-45.544983 -69.418396,-58.061096c-36.04187,-14.370483 -56.438599,4.171997 -64.203278,11.241364l-1.854279,1.738312c-17.615326,14.138611 -33.376465,22.598633 -47.051453,25.148254c-24.916504,4.751465 -48.558167,-1.970215 -70.577362,-18.774292c19.585541,6.837585 43.57486,3.59259 46.819733,3.013184" id="path30" fill-rule="nonzero" fill="#3f3f3f"/>
    <path d="m250.047852,438.434113c0,0 -43.80658,9.387146 -60.263062,14.13858c-16.45636,4.867523 -72.083839,5.794586 -104.53315,-43.574768c25.727707,21.092041 57.24987,21.092041 69.881905,20.628571c12.747955,-0.347748 45.544983,4.519745 61.653732,7.532806c-0.34761,-3.013062 -16.572281,-6.605713 -21.439758,-9.155334c-4.867386,-2.549561 -18.542389,-6.605713 -35.114761,-42.76355c-5.562729,-11.009613 -6.489899,-17.151794 -10.314209,-20.512543c6.953384,1.042938 20.512589,15.645111 24.684631,20.04895c4.172043,4.403839 29.436157,33.49234 43.806595,40.909363c14.370422,7.532867 21.439774,11.125549 31.638077,12.747925" id="path32" fill-rule="nonzero" fill="#3f3f3f"/>
    <path d="m148.875488,366.002625c2.086029,1.738281 3.244965,4.519684 4.983276,8.807648l4.983307,11.125519c15.413391,33.72406 28.277252,39.866272 34.419434,42.879395l1.274872,0.579468l8.923523,3.245026c0.927155,0.347565 2.201935,0.811127 3.360809,1.158875c-16.572281,-2.665497 -40.793427,-6.026245 -51.687164,-5.67865c-28.161346,0.811279 -51.339424,-6.026276 -68.838867,-20.396729l-2.433739,2.201935c31.290451,47.3992 86.10659,50.180542 106.387489,44.154175c16.108749,-4.751434 59.683517,-13.906769 60.147141,-14.022705l-0.115906,-3.128967c-10.082489,-1.738403 -17.151825,-5.331024 -31.17453,-12.632111c-12.168518,-6.374054 -32.797058,-29.08847 -40.561707,-37.664368l-2.781372,-3.013123l-1.042969,-1.043091c-8.691803,-9.155365 -18.426575,-18.542419 -24.568817,-19.353638l-1.27478,2.781342zm55.511566,63.623871l-8.344086,-3.013214l-1.390808,-0.695313c-5.446793,-2.549561 -17.962952,-8.691833 -32.912811,-41.372864c0,-0.115906 -4.983307,-11.009613 -4.983307,-11.009613c-0.927155,-2.433685 -2.086014,-3.59259 -3.129089,-5.330963c6.373993,3.708435 15.065796,12.63208 18.774307,16.572296l1.042953,1.043091l2.665558,3.013153c7.880585,8.575806 28.85672,31.753967 41.604675,38.35968c10.893738,5.678589 17.731232,9.155365 25.032379,11.241364c-13.095673,2.897278 -41.025345,8.923615 -53.425568,12.632111c-18.426575,5.446838 -66.173508,3.013062 -96.884407,-35.346558c16.919998,10.893616 37.896126,16.340454 62.812614,15.529297c12.168503,-0.347717 43.806564,4.172058 61.190201,7.416962l2.086014,0.46347l-0.231796,-2.201782c0,-0.463623 -0.927155,-0.811249 -1.27478,-1.274872l0,0c0,0 -0.115906,-0.115784 -0.115906,-0.115784c-1.506592,-1.854309 -4.983307,-3.476837 -12.516144,-5.910461" id="path34" fill-rule="nonzero" fill="#3f3f3f"/>
    <path d="m169.156281,420.818756c0,0 -22.019104,-6.026276 -38.35968,-8.344086c-16.456459,-2.201965 -73.822227,-16.688232 -96.18906,-84.020569c22.598637,26.307129 27.697742,27.929596 40.909313,34.535339c13.3274,6.605804 53.425438,29.436188 67.332359,41.952393c4.056152,2.317749 4.056152,2.317749 4.056152,2.317749c0,0 1.390686,-1.738312 -4.75148,-6.95343c-5.910446,-5.330933 -26.191246,-23.757507 -29.320335,-65.014496c-2.549553,-18.194763 -6.605789,-34.767151 -7.880562,-36.969116c9.155342,5.215149 19.933182,26.307159 22.135117,32.21759c2.201935,6.026276 17.035889,47.631042 19.006012,52.614288c1.854218,4.867401 13.90683,31.290344 23.062164,37.664337" id="path36" fill-rule="nonzero" fill="#3f3f3f"/>
    <path d="m103.562309,299.017914c1.04306,1.854279 5.099197,17.963074 7.648758,36.505524c1.506592,19.353668 7.880554,46.587982 29.899773,65.94165c0.115875,0 0.115875,0 0.115875,0.115936c-15.297485,-12.632172 -51.687126,-33.376495 -65.014519,-39.982269l-2.086014,-1.158875c-11.473175,-5.67865 -17.267715,-8.459991 -38.243862,-33.028809l-2.781372,1.506622c24.336948,73.358673 90.046803,84.252289 97.463871,85.179474c16.108749,2.085999 37.896118,8.344086 38.12793,8.344086l1.390686,-2.781403c-8.460007,-6.026306 -20.280792,-31.1745 -22.598633,-37.08493l-18.890106,-52.498291c-2.086029,-5.44693 -12.979774,-27.466125 -22.830467,-33.144806l-2.20192,2.08609zm44.617836,109.168793c0.347717,-0.347656 0.463531,-0.811249 0.463531,-1.390686c0,-1.506592 -1.042969,-3.940216 -5.446823,-7.648743c-21.092056,-18.774292 -27.350121,-45.08136 -28.740807,-63.971558c-1.738388,-12.516174 -4.287949,-24.684692 -6.258057,-31.753937c7.648743,7.648712 15.529305,22.714508 17.383507,27.697784l19.006042,52.614349c1.274765,3.360748 10.777817,24.221069 19.70134,34.187531c-7.416946,-1.854156 -21.671463,-5.446777 -33.376358,-6.953369c-6.721695,-0.927063 -64.782814,-11.241394 -90.85815,-74.053925c15.761127,17.499359 22.250912,21.323822 32.56522,26.423035l2.20192,1.042969c13.790916,6.95343 53.309547,29.436096 66.984642,41.720551c0.231812,0.231842 4.40387,2.549652 4.40387,2.549652l1.158875,0.695313l0.811249,-1.158966" id="path38" fill-rule="nonzero" fill="#3f3f3f"/>
    <path d="m107.850258,365.886719c0,0 -27.581924,-16.108734 -42.763611,-27.929626c-15.181599,-11.936707 -57.829297,-42.995331 -53.425457,-98.15918c6.605789,17.847137 17.38353,34.071777 29.088531,43.922485c11.704887,9.966583 32.912838,41.257019 38.012035,48.558044c4.983292,7.301178 8.459991,9.27124 8.459991,9.27124c0,0 1.622505,-3.59259 -4.056137,-9.850708c-4.172043,-6.721558 -11.704994,-22.482727 -7.648758,-56.902161c5.099197,-31.985748 6.953415,-39.634521 6.02626,-44.617798c4.403854,11.241425 10.198395,35.462494 12.40033,73.358673c1.274765,21.439728 3.70842,38.011993 6.489883,45.313171c2.897171,7.18515 7.416931,17.035858 7.416931,17.035858" id="path40" fill-rule="nonzero" fill="#3f3f3f"/>
    <path d="m80.036522,230.526672c0.115906,0.695313 0.115906,1.506561 0.115906,2.433716c0,3.59259 -0.927048,9.27124 -2.89727,21.323853l-3.244896,20.280823c-0.811234,6.837463 -1.274765,13.095551 -1.274765,19.005981c0,16.224701 3.013077,29.320313 9.039421,38.93924c1.970131,2.085999 2.89727,3.708466 3.476723,5.099152c-1.390701,-1.390686 -3.129089,-3.244995 -5.215118,-6.258026c0,0 -1.738304,-2.433716 -1.738304,-2.433716c-6.953407,-10.198303 -25.727718,-37.200806 -36.505539,-46.35614c-11.47308,-9.734894 -22.135019,-25.843658 -28.740789,-43.343109l-3.013189,0.463593c-4.287951,54.004944 35.346581,84.831757 52.266582,98.15921l1.738396,1.27478c15.065781,11.820831 42.64772,28.045502 42.87944,28.161377l2.317818,-1.970154l-7.301125,-17.035889c-2.781364,-7.417053 -5.215012,-24.105225 -6.489792,-44.849579c-2.66555,-45.89267 -10.19838,-68.143646 -12.400322,-73.822296l-3.013176,0.927185zm0.347717,24.2211c1.27478,-7.301117 1.970123,-11.936707 2.433647,-15.645233c3.129082,10.893768 7.532951,31.290466 9.503067,64.551056c1.27478,20.976105 3.708519,38.011993 6.721687,45.776642c0,0 3.244888,7.532959 5.330917,12.632019c-8.22818,-4.983276 -26.886581,-16.45636 -38.359756,-25.379944l-1.738304,-1.390656c-15.645229,-12.284363 -51.339527,-40.098114 -51.339527,-87.613159c0,-0.579498 0,-1.158875 0,-1.738434c6.837509,15.761108 16.108749,30.015656 26.770691,39.055054c10.546021,8.80777 29.088512,35.694336 36.041912,45.776855l1.622498,2.433594c5.215096,7.417084 8.923622,9.618988 9.039429,9.734802l1.622498,0.927155l0.57943,-1.738403c0.347725,-0.463531 1.854301,-4.751465 -4.287956,-11.588989c-7.648743,-12.284454 -10.082382,-31.058624 -7.185211,-55.511566c0,0 3.24498,-20.280792 3.24498,-20.280792" id="path42" fill-rule="nonzero" fill="#3f3f3f"/>
    <path d="m61.957657,289.0513c0,0 -9.503048,-14.834015 -18.078968,-24.568726c-8.575798,-9.502991 -46.472019,-52.382507 -26.886568,-124.698181c0,16.804199 2.317829,26.307159 4.056229,32.333496c1.97011,5.91037 20.744329,46.240234 22.598642,57.134003c1.85421,10.893738 4.983276,31.406311 9.387138,33.72406c1.622398,-1.042969 -0.231812,-4.635559 -0.811241,-7.996368c-0.695351,-3.244965 -6.142258,-31.290436 10.314198,-61.769653c14.94989,-26.77066 17.731247,-29.320313 19.933182,-38.591553c0.695343,17.499512 -4.983292,52.150757 -9.503052,66.75293c-4.403763,14.486359 -16.340569,48.210419 -11.00956,67.679993" id="path44" fill-rule="nonzero" fill="#3f3f3f"/>
    <path d="m42.719799,265.641998c8.344101,9.386993 17.847202,24.105011 17.847202,24.221008l2.897202,-1.274994c-4.635605,-16.920013 4.519699,-45.893005 9.387199,-61.538025l1.622398,-5.214996c4.288002,-13.906982 10.314301,-49.021988 9.618996,-67.331985l-3.129097,-0.348007c-1.622498,6.374008 -3.360802,9.619003 -9.503098,20.165009l-10.314201,18.194992c-9.734802,17.962997 -11.936699,35.229996 -11.936699,47.283005c0,7.069 0.811298,11.936981 1.274799,14.485992c-2.086002,-7.069 -3.940201,-17.382996 -4.983299,-22.945984l-0.347603,-2.318024c-1.274899,-7.648987 -10.0825,-28.160995 -16.572399,-43.110992l-5.9105,-14.25499c-1.7383,-5.562012 -4.056101,-15.065002 -4.056101,-31.87001l-3.129,-0.462997c-12.863799,47.399002 -3.129099,92.249008 27.2342,126.320999l0,0zm2.317902,-2.201996c-21.0921,-23.526001 -31.8699,-52.498993 -31.8699,-83.904999c0,-8.807999 1.158899,-17.731003 2.781399,-26.770996c0.811201,9.386993 2.317801,15.644989 3.5926,19.816986c0,0 6.142099,14.603012 6.142099,14.603012c6.026402,13.906998 15.181702,35.113998 16.340603,42.300003c0,0 0.347698,2.432983 0.347698,2.432983c2.897202,16.341003 5.562698,30.132019 9.966499,32.450012l0.811199,0.346985l0.811302,-0.462982c0.9272,-0.580017 1.274799,-1.623016 1.274799,-2.666016c0,-1.273987 -0.347599,-2.664978 -0.811199,-4.056l-0.695301,-2.781006c-0.4636,-2.085999 -1.3908,-7.416992 -1.3908,-15.065979c0,-11.58902 2.2019,-28.277008 11.705002,-45.661011l10.198402,-18.078995c2.897194,-5.098999 4.867393,-8.460007 6.258095,-11.473007c-0.9272,18.774002 -5.562798,44.850006 -9.039597,56.438995l-1.622398,5.214996c-4.287903,13.559021 -10.8937,34.303009 -10.8937,51.33902c0,1.85498 0.463593,3.47699 0.695297,5.214996c-3.592598,-5.214996 -9.1553,-13.095001 -14.6021,-19.237" id="path46" fill-rule="nonzero" fill="#3f3f3f"/>
    <path d="m46.080631,201.090515c0,0 -5.678642,-23.062256 -12.632042,-41.488831c-6.953411,-18.542419 -20.2808,-61.537842 14.254532,-106.387383c-7.301132,17.847046 -4.403862,29.436119 -4.403862,31.406242c0,1.970123 4.287952,41.604645 4.403862,51.455444c0.115898,12.63205 -2.20192,34.419434 -2.20192,34.419434c0,0 0.81123,2.665436 2.549629,0c1.042969,-1.622498 3.360809,-29.783875 20.280796,-46.587952c15.645233,-15.645233 28.393173,-27.466034 31.869881,-33.955902c0,11.473083 -6.605774,28.393158 -12.052605,37.548492c-5.331017,9.271271 -27.466026,39.634552 -32.565212,49.832855c-4.983299,10.314301 -9.503059,22.482819 -9.503059,23.757599" id="path48" fill-rule="nonzero" fill="#3f3f3f"/>
    <path d="m31.94199,160.181213c6.837601,18.078857 12.516232,41.141022 12.63205,41.372833l3.129089,-0.347626c0.115891,-1.274872 4.287941,-12.747955 9.38715,-23.062256c2.89727,-6.026276 11.820793,-19.121918 19.817261,-30.710907l12.63205,-19.121948c5.910431,-10.082489 12.168503,-27.002472 12.168503,-38.359741l-2.897263,-0.811249c-2.781357,5.215027 -11.820801,14.138641 -23.409882,25.495911l-8.22818,8.112274c-14.02282,13.906921 -18.310776,35.694305 -19.933178,43.80658c0,0 -0.34771,1.854309 -0.463631,2.665558c0.579533,-2.897278 2.433743,-33.144653 2.433743,-33.144653l-3.24498,-40.677612l-1.158871,-12.284424c-0.231812,-1.390656 -0.463531,-3.59259 -0.463531,-6.489769c0,-5.330994 0.927071,-13.095673 4.75148,-22.830444l-2.665459,-1.622498c-24.45294,31.869896 -29.32032,68.143608 -14.486351,108.009972zm3.013191,-1.158966c-5.446831,-14.602173 -8.228203,-28.740814 -8.228203,-42.300018c0,-19.006012 5.678642,-36.853149 16.340561,-53.657249c-1.27486,5.330933 -1.854298,10.082397 -1.854298,13.559204c0,3.013084 0.231808,5.330925 0.347717,6.837486c0.23172,1.158875 1.158871,12.284424 1.158871,12.284424l3.360802,40.329895c0,0 -2.201942,34.187592 -2.201942,34.187592c0.231823,1.04306 0.811253,2.781372 2.433743,2.897278c1.158878,0.231812 2.201939,-0.463531 3.013187,-1.854218c0,0 1.042973,-4.172028 1.042973,-4.172028c1.62249,-7.880585 5.678627,-28.856812 19.00602,-42.068268c0,0 8.344177,-8.22821 8.344177,-8.22821c9.50296,-9.387146 15.992844,-16.108826 20.164894,-21.555664c-1.506599,10.893738 -6.837502,24.22113 -11.125465,31.522278l-12.516129,18.890106c-7.996475,11.589081 -17.035912,24.800568 -20.04908,30.942719c-3.01318,6.142273 -6.026348,13.559204 -7.880577,18.774292c-2.20192,-7.880554 -6.373962,-23.293976 -11.35725,-36.389618" id="path50" fill-rule="nonzero" fill="#3f3f3f"/>
    <path d="m56.047218,122.516785c0,0 2.549644,-6.373993 0.231804,-32.101685c-2.433743,-25.727707 -3.476704,-60.842491 36.389641,-84.48418c-9.966583,16.68829 -11.589081,19.585567 -14.602264,33.260593c-3.013168,13.559166 -6.373962,35.34655 -11.820786,47.630966c-2.20192,6.026367 -3.592606,10.777832 -2.549644,11.357269c0.927155,0.579437 1.390678,-0.463531 2.086113,-2.54953c0.927055,-2.08606 9.039429,-20.512627 25.495819,-32.217606c16.456451,-11.704903 31.290428,-23.409889 36.853157,-34.998856c-2.43364,21.439644 -10.546028,29.088516 -18.658295,39.866249c-8.807716,11.704979 -40.445786,36.157829 -45.776794,44.154289c-5.446815,7.880554 -7.64875,10.082489 -7.64875,10.082489" id="path52" fill-rule="nonzero" fill="#3f3f3f"/>
    <path d="m54.656528,90.531006c2.317844,24.684662 -0.115898,31.290436 -0.115898,31.290436l2.549648,1.854218l7.880554,-10.430115c2.433655,-3.592621 11.009544,-11.125458 19.933075,-19.121918c10.430222,-9.155365 21.208054,-18.658409 25.843636,-24.916466c0,0 3.244873,-4.172058 3.244873,-4.172058c6.953506,-8.923523 13.559219,-17.383606 15.761124,-36.38961l-3.013153,-0.927071c-5.562744,11.473076 -20.744324,23.293945 -36.389549,34.419441c-11.936707,8.459953 -19.46965,20.280746 -23.293991,27.350082c0.23172,-0.811157 0.347641,-1.042969 0.695351,-2.086029c4.17205,-9.27124 6.953423,-23.873405 9.618874,-36.62133l2.20192,-11.241394c3.013176,-13.211449 4.40387,-15.877014 14.486359,-32.797024l-2.201942,-2.201939c-42.879505,25.495911 -39.170986,64.898743 -37.200878,85.990776zm4.172054,18.658386c0,-4.751556 -0.23172,-10.893738 -1.042976,-18.890198c-0.463608,-4.983307 -0.927139,-11.009552 -0.927139,-17.615311c0,-18.774231 5.562721,-42.068214 30.131561,-60.147163c-6.142258,10.430122 -7.99646,14.94989 -10.430206,26.307129l-2.43364,11.241394c-2.433746,12.632019 -5.331009,27.00248 -9.387154,36.157799c-2.201942,5.910461 -3.013191,9.155334 -3.013191,11.009552c0,1.274872 0.463646,1.854309 1.158981,2.317841l0.57943,0.347717l1.390678,-0.115906c1.27478,-0.463623 1.85421,-1.854309 2.43364,-3.708527c0.811256,-1.854218 9.039536,-20.049072 24.916473,-31.406326c13.095673,-9.271255 25.495911,-19.121925 32.912941,-28.856689c-2.665543,12.63205 -7.764671,19.701347 -13.675102,27.350174l-3.244888,4.05616c-4.519783,6.026245 -15.529327,15.876915 -25.380104,24.568748c-9.502968,8.459991 -17.847054,15.761108 -20.512604,19.701355c0,0 -1.85421,2.549652 -3.70842,4.983307c0.115814,-1.970123 0.23172,-4.172058 0.23172,-7.301056" id="path54" fill-rule="nonzero" fill="#3f3f3f"/>
    <path d="m85.831062,54.257271c0,0 5.215118,-27.234192 15.645218,-43.343052c10.43013,-16.108757 32.101692,-30.363279 54.932045,-37.43261c-7.996384,6.72171 -12.863754,12.747952 -15.645142,17.615349c-2.781342,4.75156 -20.049072,31.753971 -27.929634,40.329868c-8.112366,8.575905 -21.092041,16.340576 -27.002487,22.830444" id="path56" fill-rule="nonzero" fill="#3f3f3f"/>
    <path d="m100.085609,9.98716c-10.43013,16.22467 -15.529312,42.879417 -15.761139,43.922493l2.781372,1.390678l11.589081,-9.850677l15.181686,-12.979767c8.228188,-8.807709 25.611702,-35.926025 28.277275,-40.561676c3.244888,-5.67865 8.344101,-11.473181 15.297501,-17.26762l-1.506577,-2.665581c-24.105225,7.417061 -45.429092,22.019199 -55.8592,38.01215zm2.781372,1.738312c8.807709,-13.675022 26.423058,-26.075352 46.587944,-33.839991c-4.056152,4.17206 -7.648773,8.34408 -10.082413,12.40024c-2.665558,4.519741 -19.817276,31.406342 -27.813744,40.098137c0,0 -19.585449,16.572304 -23.178062,19.585449c1.970131,-8.344086 6.837502,-26.422935 14.486275,-38.243835" id="path58" fill-rule="nonzero" fill="#3f3f3f"/>
    <path d="m250.511475,500.899048c0,0 65.941589,-80.543793 146.021881,-60.494751c37.084991,14.022705 58.75647,23.989319 70.693176,25.843506c11.820862,1.970154 39.286896,3.476746 55.859283,-8.459961c-30.131622,28.972595 -58.7565,31.522217 -79.848633,28.045532c-21.207916,-3.476807 -42.647583,-20.049072 -48.210419,-24.337036c-5.562714,-4.287964 -26.422974,-27.466003 -64.782715,-11.125397c-28.045441,13.906769 -62.812622,53.54129 -68.607117,60.726532c-11.125458,-10.198425 -11.125458,-10.198425 -11.125458,-10.198425" id="path60" fill-rule="nonzero" fill="#3f3f3f"/>
    <path d="m249.236603,499.856079l-0.927063,1.158875l13.559204,12.40033l1.042969,-1.390686c7.069305,-8.691772 41.141113,-46.819763 68.027649,-60.263062c33.724121,-14.370422 53.541382,2.781372 60.958435,9.271301l2.085999,1.738281c18.426605,14.022705 34.767151,22.366821 49.021667,24.684631c29.204346,4.635681 56.554596,-4.867371 81.007416,-28.277222c0.115906,-0.115906 0.115906,-0.115906 0.115906,-0.231812l-1.970093,-2.433655c-18.774353,13.443298 -51.107758,8.807617 -54.700409,8.228149c-7.764618,-1.27478 -19.8172,-6.026215 -38.127869,-13.327393l-32.217621,-12.516113c-80.312012,-20.164978 -147.180847,60.147156 -147.87619,60.958374zm146.949158,-57.94519l31.985779,12.516113c18.542389,7.301147 30.710907,12.168518 38.823242,13.443298c3.013184,0.463562 25.843506,3.592651 44.849579,-2.897278c-21.092072,16.456482 -43.922516,23.178101 -68.375366,19.237854c-13.559174,-2.201904 -29.552032,-10.198425 -47.283234,-23.873413c-0.231873,-0.115875 -2.201965,-1.738403 -2.201965,-1.738403c-7.880554,-6.837524 -28.740906,-24.916412 -64.435059,-9.618835c-26.539001,13.09552 -59.335938,49.253357 -68.02771,59.799377c-1.738403,-1.506592 -7.185242,-6.605774 -8.807709,-7.99646c5.910431,-6.953369 68.607239,-77.53064 143.472443,-58.872253" id="path62" fill-rule="nonzero" fill="#3f3f3f"/>
    <path d="m411.715057,436.463989c0,0 44.038391,8.112366 60.494751,12.516235c16.572418,4.403748 72.315704,3.940186 103.60611,-46.240356c-25.264099,21.787415 -56.902222,22.598633 -69.534302,22.482727c-12.632019,-0.115875 -45.429108,5.562744 -61.30603,9.039459c0.231842,-3.128998 16.340576,-7.069305 21.207977,-9.734772c4.751495,-2.665466 18.310669,-7.069336 33.955902,-43.690674c5.446838,-11.125458 6.142151,-17.383606 9.966614,-20.744446c-6.95343,1.27478 -20.165009,16.22467 -24.221161,20.62854c-4.172028,4.635559 -28.740845,34.303589 -42.879456,42.068237c-14.13858,7.996399 -21.207916,11.58902 -31.290405,13.675049" id="path64" fill-rule="nonzero" fill="#3f3f3f"/>
    <path d="m485.884918,378.402832l-1.158875,1.274811l-3.129089,3.476776c-7.532837,8.691742 -27.466003,31.753967 -39.286804,38.243835c-14.370422,8.112305 -21.207947,11.473083 -30.94281,13.443329l0,3.128998c0.347717,0.115936 44.154297,8.228149 60.494812,12.516113c20.396729,5.562805 75.212982,1.390717 105.228546,-46.935547l-2.317749,-1.970123c-17.2677,14.833954 -40.329956,22.250885 -68.375427,22.019104c-11.009552,-0.115784 -34.998871,3.824463 -51.687134,7.069305c1.158875,-0.463562 2.433685,-0.927032 3.476654,-1.27478l8.691864,-3.476685l1.390656,-0.695374c5.562775,-2.781342 18.658417,-9.50293 33.376495,-43.690643l4.751465,-11.241364c1.622498,-4.287964 2.781372,-7.185242 4.635681,-8.923645l-1.274841,-2.781342c-6.026337,1.04306 -15.413452,10.54599 -23.873444,19.81723zm-42.068176,45.89267c12.284302,-6.953461 31.869751,-29.436157 40.213928,-39.055084l3.013123,-3.360809l1.274841,-1.390717c3.59259,-3.940247 11.936707,-12.863861 18.078888,-16.804108c-0.927124,1.738373 -2.085999,3.013184 -3.013184,5.446808l-4.63559,11.009674c-14.254517,33.260529 -26.654785,39.518585 -31.985748,42.299988l-1.390717,0.695343c0,0 -8.22821,3.244904 -8.22821,3.244904c-7.532898,2.665527 -10.893677,4.403839 -12.400269,6.258179c0,0 -0.115906,0.115753 -0.115906,0.115753l0,0c-0.347656,0.463623 -1.158905,0.927216 -1.27478,1.390808l-0.115936,2.201874l2.086029,-0.579468c14.833984,-3.244904 47.978699,-9.039429 60.958405,-8.923523c24.916504,0.115875 45.776794,-5.794586 62.465027,-17.267731c-29.89978,39.286926 -77.530731,42.879517 -96.073181,37.89624c-12.40036,-3.360901 -40.561707,-8.807709 -53.773193,-11.241394c7.069305,-2.31781 13.790924,-5.794556 24.916473,-11.936737zm57.829315,-42.76355l0,0" id="path66" fill-rule="nonzero" fill="#3f3f3f"/>
    <path d="m492.258881,416.762604c0,0 21.671478,-6.721588 38.012054,-9.27121c16.456482,-2.665436 73.474609,-18.658325 94.103027,-86.570251c-21.903259,26.886597 -26.886536,28.625 -39.982117,35.694366c-13.095703,6.837494 -52.730225,30.595093 -66.405212,43.458893c-4.056274,2.433655 -4.056274,2.433655 -4.056274,2.433655c0,0 -1.158875,-1.622498 4.635681,-6.9534c5.910461,-5.446777 25.727722,-24.45285 27.929565,-65.825745c2.086121,-18.194763 5.794556,-34.767151 7.069336,-37.200836c-9.039429,5.562744 -19.353699,27.002411 -21.439697,32.912872c-2.085999,6.026337 -15.99292,47.978607 -17.731262,52.961884c-1.854309,4.983368 -13.211578,31.638184 -22.135101,38.359772" id="path68" fill-rule="nonzero" fill="#3f3f3f"/>
    <path d="m530.618652,324.977417l-17.731201,52.961945c-2.317871,6.14212 -13.443329,31.406311 -21.671539,37.548492l1.390717,2.781311c0.231659,0 21.903259,-6.72168 38.012024,-9.27124c7.301147,-1.158875 72.779175,-13.675079 95.377808,-87.613129l-2.781372,-1.506592c-20.628479,25.264099 -25.959412,28.045441 -37.548462,34.187714l-2.08606,1.042999c-12.979736,6.953339 -48.326294,28.277283 -63.739746,41.372894c21.439758,-20.049072 27.234314,-47.283264 28.277283,-66.637024c2.085999,-18.658386 5.67865,-34.651245 6.837585,-36.505554l-2.31781,-2.201843c-9.734802,6.026245 -20.049072,28.393097 -22.019226,33.840027zm-14.718079,54.004883c0,0 17.731262,-52.961914 17.731262,-52.961914c1.738281,-5.099243 9.27124,-20.280792 16.688171,-28.161377c-1.738281,7.069366 -3.940186,19.006042 -5.446777,31.638062c-1.506592,27.466125 -10.661987,49.253479 -27.35022,64.898773c-4.056152,3.708344 -5.215027,6.14212 -5.215027,7.648712c0,0.579407 0.115906,1.158875 0.463501,1.506592l0.811279,1.042999l5.215088,-3.129059c13.559143,-12.632019 52.614197,-36.157837 66.289307,-43.458923l1.970154,-1.042969c10.31427,-5.44696 16.688232,-9.387146 32.101685,-27.466125c-24.452942,63.508057 -82.282288,75.212982 -89.119751,76.371765c-11.589111,1.85434 -25.727722,5.67865 -33.144684,7.880615c8.691742,-10.082397 17.49942,-30.595032 19.006012,-34.767151" id="path70" fill-rule="nonzero" fill="#3f3f3f"/>
    <path d="m552.174255,360.323975c0,0 27.118347,-16.919983 42.068237,-29.204407c14.833984,-12.168518 56.786377,-44.270111 51.107727,-99.318115c-6.258057,17.963043 -16.572388,34.419525 -28.045532,44.617828c-11.473083,10.198364 -31.869873,42.068207 -36.737305,49.485199c-4.983276,7.417023 -8.344055,9.503052 -8.344055,9.503052c0,0 -1.738342,-3.592651 3.824402,-10.082489c3.940247,-6.605652 11.241394,-22.714539 6.258057,-56.902191c-5.794495,-31.985779 -7.764648,-39.518677 -7.069275,-44.386047c-4.056152,11.241333 -9.27124,35.462463 -10.546021,73.474609c-0.695374,21.555542 -2.897278,38.12793 -5.562744,45.428955c-2.665527,7.417053 -6.953491,17.383606 -6.953491,17.383606" id="path72" fill-rule="nonzero" fill="#3f3f3f"/>
    <path d="m563.067993,297.511414c-0.695374,20.744263 -2.781372,37.548401 -5.446838,44.849487l-6.837585,17.383698l2.31781,1.970093c0.231812,-0.231842 27.35022,-17.151825 42.184204,-29.320343l1.738281,-1.390686c16.572388,-13.675018 55.511597,-45.429047 49.948853,-99.43396l-3.129089,-0.347717c-6.142151,17.847198 -16.22467,33.955872 -27.581909,44.038391c-10.546021,9.387177 -28.625,36.85318 -35.462524,47.283295l-1.622498,2.549683c-2.085999,3.013031 -3.708374,4.867371 -4.983276,6.258057c0.463623,-1.27478 1.274902,-2.897308 3.013184,-4.983307c5.562744,-9.27121 8.344116,-21.671539 8.344116,-36.737274c0,-6.72171 -0.463562,-13.906952 -1.622437,-21.439789c0,-0.115906 -3.824402,-20.628479 -3.824402,-20.628479c-2.31781,-12.284424 -3.360779,-17.847168 -3.360779,-21.323853c0,-0.695374 0,-1.390686 0.115906,-1.970093l-3.013184,-0.811279c-2.201965,5.794556 -9.155334,28.277283 -10.777832,74.054077zm-2.433655,46.008484c2.781372,-7.648834 4.983215,-24.800507 5.678528,-45.89267c1.158997,-33.26059 5.099182,-53.657318 7.99646,-64.66684c0.463623,3.59259 1.27478,8.228149 2.665466,15.18161l3.824402,20.512634c1.043091,7.532867 1.622498,14.602203 1.622498,21.092041c0,14.370392 -2.665527,26.191193 -7.764648,34.76712c-3.476685,4.056213 -4.287964,7.301086 -4.287964,9.271271c0,1.27475 0.347656,2.085999 0.463562,2.201904l0.695313,1.738403l1.506592,-0.927155c0.231812,-0.115906 3.824463,-2.433777 8.807739,-9.966614l1.738281,-2.549561c6.72168,-10.31427 24.568787,-37.548492 34.883057,-46.587921c10.314209,-9.271271 19.237854,-23.757568 25.611816,-39.634583c0.115784,1.274841 0.23175,2.665497 0.23175,3.940277c0,46.12439 -34.187622,74.169891 -49.369324,86.57019l-1.738342,1.390717c-11.241455,9.27124 -29.552124,21.207916 -37.664368,26.422974c1.970093,-4.983307 5.099182,-12.8638 5.099182,-12.8638" id="path74" fill-rule="nonzero" fill="#3f3f3f"/>
    <path d="m596.212646,282.213806c0,0 9.155334,-15.065796 17.499512,-24.916504c8.344055,-9.734741 45.313171,-53.657227 23.989319,-125.393463c0.347595,16.804199 -1.622498,26.423065 -3.360901,32.449402c-1.738342,5.910339 -19.469543,46.703857 -21.092041,57.597504c-1.738342,11.009644 -4.40387,31.522278 -8.807617,33.955872c-1.506592,-0.927032 0.347595,-4.635559 0.811157,-7.880554c0.579529,-3.360748 5.330994,-31.638062 -11.820801,-61.537811c-15.529297,-26.307037 -18.426575,-28.972595 -20.744446,-38.12796c-0.347595,17.499451 6.258179,52.034882 10.893738,66.405212c4.867432,14.486389 17.615356,47.862885 12.63208,67.448303" id="path76" fill-rule="nonzero" fill="#3f3f3f"/>
    <path d="m636.078979,131.903839c0,1.390686 0,2.897278 0,4.287964c0,11.009644 -1.043091,20.049072 -3.244873,27.697815l-5.794556,14.94989c-6.026367,14.94989 -14.254578,35.462494 -15.413513,42.879517l-0.463562,3.128998c-0.811218,5.67865 -2.31781,15.297607 -4.171997,22.019165c0.347717,-2.31781 0.927124,-6.258057 0.927124,-12.052612c0,-12.052582 -2.31781,-30.247375 -13.211548,-49.137573c0,0 -10.777771,-17.962952 -10.777771,-17.962952c-6.258179,-10.314301 -8.112366,-13.559204 -9.734863,-19.701355l-3.244873,0.347595c-0.231812,18.078979 6.605774,53.07785 11.125427,66.984741l1.854309,5.330933c5.215027,15.413391 15.065735,44.154297 10.777771,61.190186l2.897278,1.158875c0.115906,-0.115906 9.155334,-15.065765 17.383606,-24.684631c29.552063,-34.767151 38.12793,-79.848511 24.22113,-126.900085l-3.129089,0.463531zm-30.826904,125.393463c4.40387,-2.433655 6.72168,-15.992859 9.03949,-31.985657l0.463562,-3.013184c1.158875,-7.185242 9.618835,-28.277283 15.181702,-42.299988l5.910339,-15.181702c1.158936,-4.056152 2.31781,-11.125458 2.897278,-20.62851c2.31781,10.314301 3.708496,20.512604 3.708496,30.479187c0,30.13147 -10.08252,58.292938 -29.899719,81.586884c-5.215027,6.142151 -10.546082,14.022797 -14.022766,19.353638c0.115906,-1.274689 0.463562,-2.317657 0.463562,-3.592468c0,-17.151855 -7.301086,-38.591614 -12.052612,-52.382507l-1.854248,-5.330994c-3.708496,-11.589081 -8.807678,-37.316711 -10.198364,-55.975098c1.506592,2.897247 3.36084,6.142151 6.373962,11.009644l10.777832,17.962952c10.430115,18.310669 12.632019,35.810211 12.632019,47.39917c0,6.489868 -0.695313,11.241394 -0.927063,12.979828c-0.115906,0 -0.811218,3.013184 -0.811218,3.013184c-0.231812,1.390625 -0.695374,2.665375 -0.695374,3.824249c0,1.159027 0.347656,2.201965 1.390686,2.781372l0.811279,0.463654l0.811157,-0.463654" id="path78" fill-rule="nonzero" fill="#3f3f3f"/>
    <path d="m610.003662,194.021179c0,0 5.214966,-23.293945 11.704895,-41.952362c6.489868,-18.658386 18.774292,-61.885529 -16.688232,-105.92382c7.648743,17.615326 5.099243,29.320221 5.215027,31.290344c0,1.970207 -3.476685,41.720543 -3.244873,51.571312c0.115906,12.63205 3.013184,34.303528 3.013184,34.303528c0,0 -0.811279,2.665466 -2.549683,0.115906c-1.158875,-1.738403 -4.056152,-29.783844 -21.323853,-46.12442c-16.108765,-15.18158 -29.08844,-26.654755 -32.68103,-33.144653c0.23175,11.589081 7.301025,28.161377 12.86377,37.316711c5.562805,9.039429 28.393188,38.939178 33.724182,49.021698c5.215027,10.082489 9.966614,22.135101 9.966614,23.525757" id="path80" fill-rule="nonzero" fill="#3f3f3f"/>
    <path d="m603.513733,46.84034c4.63562,10.314209 5.446838,18.542389 5.446838,23.873413c0,2.31781 -0.115906,4.056114 -0.231689,5.215088l-0.927185,11.588982l-2.433716,41.488831c0,0 1.854309,21.092041 2.665527,30.247375c-1.970215,-8.923615 -6.605774,-29.667938 -20.860291,-42.9953c0,-0.115936 -8.807739,-8.460114 -8.807739,-8.460114c-11.588989,-10.893646 -20.744324,-19.469543 -23.525696,-24.45285l-3.013184,0.811249c0.231812,11.357269 6.95343,28.045471 13.095581,38.12796l13.211609,19.006012c8.228149,11.241364 17.383484,24.105225 20.396667,29.89978c5.446838,10.314209 9.734802,21.671478 9.850708,22.94632l3.244873,0.23172c0,-0.23172 5.215088,-23.409851 11.58905,-41.836456c14.022766,-39.866241 8.344116,-76.024071 -17.035889,-107.430412l-2.665466,1.738403zm5.67865,119.251213c1.622498,-0.231812 2.201965,-1.970123 2.31781,-2.317841c0,0 0,0 0,0c0,-1.27478 -3.013123,-34.767059 -3.013123,-34.767059l2.549561,-41.141113l0.695313,-10.430199c0.115906,-1.738312 0.347717,-3.940254 0.347717,-6.605682c0,-3.824425 -0.811218,-9.155342 -2.31781,-14.94989c11.58905,17.151794 17.731201,35.694206 17.731201,55.627373c0,12.863861 -2.433716,26.191254 -7.301086,39.982239c-4.63562,13.327393 -8.575928,28.85672 -10.430115,36.737274c-1.970154,-5.099213 -5.099243,-12.40033 -8.344116,-18.54248c-3.244995,-6.026276 -12.516113,-18.890137 -20.62854,-30.247375l-13.095581,-18.890228c-5.099182,-8.22818 -10.31427,-20.860229 -12.052551,-31.174438c4.287842,5.215027 10.893616,11.704895 20.512573,20.860229l8.923523,8.22818c13.559204,12.863861 17.963074,33.028839 19.817261,41.604767l1.158875,4.172028c0.927185,1.390686 1.970215,1.970123 3.129089,1.854218" id="path82" fill-rule="nonzero" fill="#3f3f3f"/>
    <path d="m598.298645,115.563385c0,0 -2.665466,-6.258179 -0.927063,-31.985779c1.738342,-25.843613 1.970154,-60.958397 -38.359741,-83.672935c10.314209,16.572266 11.936707,19.469536 15.297485,33.028748c3.360779,13.443298 7.301147,35.114868 12.979797,47.283287c2.31781,6.026337 3.940186,10.661926 2.897278,11.241455c-1.043091,0.695343 -1.506592,-0.463623 -2.317871,-2.433746c-0.811218,-2.086029 -9.503052,-20.280785 -26.075317,-31.522141c-16.804138,-11.357277 -31.869873,-22.714546 -37.664429,-34.071815c2.781372,21.323853 11.125488,28.740784 19.469666,39.286804c9.039429,11.473175 41.256897,35.114861 46.819641,42.879509c5.67865,7.880493 7.880554,9.966614 7.880554,9.966614" id="path84" fill-rule="nonzero" fill="#3f3f3f"/>
    <path d="m557.621155,0.831829c10.430115,16.688168 11.936707,19.353634 15.18158,32.449314l2.433777,10.661919c2.897278,12.863861 6.142151,27.466042 10.546021,36.968987c0.231812,0.579529 0.695313,1.738373 1.04303,2.665558c-3.708496,-6.721703 -11.473145,-18.890213 -24.22113,-27.466026c-15.877014,-10.661926 -31.406311,-22.251007 -37.084961,-33.376457l-3.013184,0.927055c2.549622,18.890205 9.27124,27.118408 16.572388,35.926125l3.244873,4.056114c4.867371,6.25808 15.99292,15.52932 26.53894,24.568748c9.155334,7.648743 17.731262,14.833984 20.280823,18.426575l8.112366,10.082489l2.549561,-1.854187c-0.115906,0 -2.549561,-6.489899 -0.811218,-31.174561c1.390625,-21.323845 4.056213,-60.842552 -39.170959,-85.179501l-2.201904,2.317848zm33.376465,91.901112c0.695313,-0.347717 1.042969,-1.04306 1.042969,-2.086029c0,-1.854309 -1.042969,-5.099213 -3.244934,-11.009644c-4.287903,-9.155327 -7.648743,-24.336937 -10.430176,-36.389549l-2.549561,-10.777832c-2.781372,-11.357269 -4.751465,-15.761139 -11.009521,-26.191257c25.49585,17.61536 31.522156,40.56171 31.522156,62.928532c0,4.867371 -0.231812,9.618858 -0.463562,14.254509c-0.463623,6.489899 -0.579407,11.704895 -0.579407,15.876953c0,4.635681 0.115784,7.764648 0.463501,10.314301c-1.970093,-2.433746 -3.940308,-4.867401 -3.940308,-4.867401c-2.781372,-3.824402 -11.125488,-10.893707 -20.860229,-19.006012c-10.08252,-8.459984 -21.439758,-18.078941 -26.191284,-23.989403l-3.244873,-4.172028c-6.026367,-7.416962 -11.241455,-14.254463 -14.254517,-26.770691c7.069336,8.923637 18.542419,17.847137 33.608154,27.929657c17.151794,11.704895 25.495911,30.710899 25.611816,30.826805c0.695374,1.854309 1.158875,3.129089 2.433777,3.476715l0.695313,0.347717l1.390686,-0.695343" id="path86" fill-rule="nonzero" fill="#3f3f3f"/>
    <path d="m566.892395,48.11512c0,0 -5.794556,-27.002502 -16.688293,-42.879551c-10.661926,-15.876919 -32.681091,-29.552029 -55.627411,-36.04192c8.112305,6.489891 13.095612,12.400351 15.992889,17.15181c2.897278,4.751499 20.860352,31.290443 28.972595,39.63456c8.228271,8.459991 21.439758,15.761108 27.35022,22.135101" id="path88" fill-rule="nonzero" fill="#3f3f3f"/>
    <path d="m493.533997,-29.531601c8.807007,6.837601 13.327026,12.863899 15.64502,16.688301c2.781006,4.635601 20.859985,31.406403 29.320007,39.982201c0,0 15.529968,12.632103 15.529968,12.632103l11.820007,9.387093l2.666016,-1.390694c-0.231995,-1.158905 -6.026001,-27.466003 -16.920044,-43.458904c-10.777954,-15.761097 -32.448975,-29.783798 -56.554962,-36.621399l-1.506012,2.7813l0,0zm62.348999,66.752998l-15.182007,-12.400299c-8.112,-8.228195 -26.075012,-34.998898 -28.740967,-39.2869c-2.433044,-3.940199 -6.142029,-7.996399 -10.430023,-12.168499c20.397003,7.3011 38.243988,19.237801 47.399017,32.797001c7.880981,11.5891 13.211975,29.436199 15.297974,37.780399c-3.47699,-2.897301 -8.343994,-6.721703 -8.343994,-6.721703" id="path90" fill-rule="nonzero" fill="#3f3f3f"/>
   </g>
  </g>
  <text xml:space="preserve" text-anchor="middle" font-family="serif" font-size="24" id="svg_1" y="567" x="351" stroke-width="0" stroke="#000000" fill="#000000"/>
 </g>
</svg>