<?xml version="1.0"?><svg width="640" height="480" xmlns="http://www.w3.org/2000/svg">
 <title>legal symbol</title>
 <metadata id="metadata40">image/svg+xmlInternational Criminal Court logo scale justice blue plant vine tree</metadata>
 <g>
  <title>Layer 1</title>
  <g id="g2588">
   <path fill="#3f7f00" fill-rule="nonzero" id="path28" d="m420.757965,548.812988c0,0 -67.911804,-78.805511 -147.528503,-56.786346c-36.621338,14.94989 -58.177002,25.49588 -69.997803,27.813751c-11.704987,2.085999 -39.286896,4.287903 -56.091003,-7.069336c30.826813,28.161377 59.451782,29.89978 80.543823,25.959412c21.092072,-4.056152 42.184204,-21.207947 47.631012,-25.611694c5.562744,-4.287933 25.611816,-28.161407 64.551025,-12.747894c28.161346,13.211395 63.971466,52.034698 69.997803,58.988129c10.893646,-10.546021 10.893646,-10.546021 10.893646,-10.546021"/>
   <path fill="#3f7f00" fill-rule="nonzero" id="path30" d="m272.765839,490.520172c-0.115784,0 -31.522156,13.211487 -31.522156,13.211487c-18.426575,7.880554 -30.595093,12.979706 -38.359741,14.486237c-3.592621,0.695313 -35.81012,6.142212 -54.816132,-6.837494l-1.970215,2.433685c0,0.115845 0.115906,0.23175 0.115906,0.23175c25.148285,22.830444 52.614288,31.638184 81.818726,26.191223c14.022705,-2.665466 30.247375,-11.241333 48.094513,-25.7276c0.23172,-0.115906 2.317749,-1.970215 2.317749,-1.970215c7.301117,-6.605682 26.654877,-24.220978 60.842468,-10.661896c27.234314,12.747894 62.117371,49.948822 69.302582,58.524689l1.158875,1.27478l13.211487,-12.747925l-1.042969,-1.158875c-0.695343,-0.811279 -69.418396,-79.269073 -149.151093,-57.249847zm-69.186554,30.826813c7.99646,-1.506592 20.280884,-6.721741 38.823273,-14.718048l31.406342,-13.095703c74.169891,-20.512573 138.60498,48.44223 144.747131,55.163849c-1.622375,1.622498 -6.9534,6.72168 -8.691711,8.344177c-8.923615,-10.198425 -42.415894,-45.544952 -69.418396,-58.061066c-36.041901,-14.370483 -56.438599,4.171997 -64.203278,11.241333l-1.854309,1.738342c-17.615326,14.13858 -33.376465,22.598602 -47.051453,25.148224c-24.916473,4.751465 -48.558167,-1.970215 -70.577362,-18.774292c19.585571,6.837585 43.57486,3.59259 46.819763,3.013184"/>
   <path fill="#3f7f00" fill-rule="nonzero" id="path32" d="m258.047791,488.434052c0,0 -43.80658,9.387146 -60.263062,14.138611c-16.45636,4.867493 -72.083817,5.794556 -104.533127,-43.574768c25.727707,21.092041 57.249863,21.092041 69.881912,20.62854c12.747925,-0.347717 45.544952,4.519775 61.653717,7.532837c-0.347626,-3.013062 -16.572296,-6.605713 -21.439758,-9.155334c-4.867371,-2.549561 -18.542389,-6.605713 -35.114777,-42.76355c-5.562714,-11.009644 -6.489868,-17.151794 -10.314209,-20.512573c6.9534,1.042969 20.512604,15.645142 24.684662,20.04895c4.172028,4.40387 29.436127,33.492371 43.80658,40.909363c14.370422,7.532898 21.439758,11.125549 31.638062,12.747925"/>
   <path fill="#3f7f00" fill-rule="nonzero" id="path34" d="m156.875427,416.002594c2.086029,1.738281 3.244995,4.519653 4.983307,8.807617l4.983276,11.125549c15.413422,33.72406 28.277283,39.866272 34.419434,42.879395l1.274872,0.579468l8.923523,3.244995c0.927155,0.347595 2.201935,0.811157 3.360809,1.158875c-16.572266,-2.665466 -40.793396,-6.026245 -51.687134,-5.67865c-28.161362,0.811279 -51.339432,-6.026245 -68.838867,-20.396729l-2.433746,2.201965c31.290451,47.39917 86.106567,50.180542 106.387482,44.154175c16.108734,-4.751465 59.683502,-13.906799 60.147125,-14.022705l-0.115906,-3.128967c-10.082489,-1.738403 -17.151825,-5.331055 -31.17453,-12.632141c-12.168518,-6.374023 -32.797028,-29.08844 -40.561707,-37.664368l-2.781342,-3.013123l-1.042969,-1.043091c-8.691803,-9.155334 -18.426575,-18.542419 -24.568848,-19.353638l-1.27478,2.781372zm55.511566,63.62384l-8.344086,-3.013184l-1.390778,-0.695313c-5.446808,-2.549561 -17.962952,-8.691833 -32.912842,-41.372864c0,-0.115906 -4.983276,-11.009644 -4.983276,-11.009644c-0.927185,-2.433655 -2.086029,-3.59259 -3.129089,-5.330933c6.373962,3.708435 15.065765,12.63208 18.774292,16.572266l1.042969,1.043091l2.665558,3.013184c7.880554,8.575806 28.856689,31.753967 41.604645,38.35968c10.893738,5.678589 17.731232,9.155334 25.032379,11.241333c-13.095673,2.897278 -41.02533,8.923645 -53.425568,12.632141c-18.426575,5.446838 -66.173477,3.013062 -96.884384,-35.346558c16.919998,10.893616 37.896133,16.340454 62.812607,15.529297c12.168488,-0.347717 43.806549,4.172058 61.190186,7.416931l2.086029,0.463501l-0.231812,-2.201782c0,-0.463623 -0.927155,-0.811279 -1.27478,-1.274902l0,0c0,0 -0.115906,-0.115784 -0.115906,-0.115784c-1.506592,-1.854309 -4.983307,-3.476807 -12.516144,-5.910461"/>
   <path fill="#3f7f00" fill-rule="nonzero" id="path36" d="m177.156219,470.818695c0,0 -22.019104,-6.026245 -38.35965,-8.344055c-16.456467,-2.201965 -73.822243,-16.688232 -96.18906,-84.020569c22.598629,26.307129 27.697727,27.929565 40.909321,34.535339c13.327377,6.605774 53.42543,29.436157 67.332367,41.952393c4.056137,2.317749 4.056137,2.317749 4.056137,2.317749c0,0 1.390656,-1.738342 -4.751495,-6.95343c-5.910446,-5.330933 -26.191238,-23.757507 -29.32032,-65.014526c-2.549538,-18.194763 -6.605789,-34.767151 -7.880562,-36.969116c9.155342,5.215149 19.933167,26.30719 22.135101,32.21759c2.201935,6.026306 17.035904,47.631042 19.005997,52.614319c1.854218,4.867371 13.90683,31.290344 23.062164,37.664307"/>
   <path fill="#3f7f00" fill-rule="nonzero" id="path38" d="m111.562271,349.017853c1.04306,1.854309 5.099197,17.963074 7.648758,36.505554c1.506592,19.353638 7.880554,46.587952 29.89975,65.94165c0.115906,0 0.115906,0 0.115906,0.115906c-15.297501,-12.632141 -51.687134,-33.376465 -65.014526,-39.982239l-2.086021,-1.158875c-11.473167,-5.67865 -17.267708,-8.460022 -38.243847,-33.028809l-2.78138,1.506592c24.336948,73.358704 90.04681,84.252319 97.463863,85.179504c16.108749,2.085999 37.896103,8.344055 38.127899,8.344055l1.390701,-2.781372c-8.459991,-6.026306 -20.280792,-31.1745 -22.598633,-37.084961l-18.890091,-52.498291c-2.086029,-5.446899 -12.979767,-27.466125 -22.83046,-33.144775l-2.20192,2.08606zm44.617813,109.168823c0.347717,-0.347656 0.463531,-0.811279 0.463531,-1.390686c0,-1.506592 -1.042969,-3.940247 -5.446808,-7.648743c-21.092041,-18.774292 -27.350121,-45.08136 -28.740799,-63.971558c-1.738388,-12.516174 -4.287949,-24.684692 -6.258057,-31.753967c7.648735,7.648743 15.529312,22.714539 17.383514,27.697815l19.006027,52.614319c1.27478,3.360779 10.777832,24.221069 19.701355,34.187561c-7.416962,-1.854187 -21.671478,-5.446777 -33.376373,-6.953369c-6.721695,-0.927063 -64.782806,-11.241394 -90.858147,-74.053955c15.761131,17.49939 22.250908,21.323853 32.565224,26.423035l2.20192,1.042969c13.790924,6.95343 53.30954,29.436096 66.98465,41.720581c0.231812,0.231812 4.40387,2.549622 4.40387,2.549622l1.158844,0.695313l0.811249,-1.158936"/>
   <path fill="#3f7f00" fill-rule="nonzero" id="path40" d="m115.85022,415.886688c0,0 -27.581917,-16.108765 -42.763611,-27.929626c-15.181599,-11.936707 -57.829299,-42.995361 -53.425449,-98.15918c6.60578,17.847107 17.38353,34.071777 29.08852,43.922485c11.704891,9.966553 32.912842,41.257019 38.012039,48.558044c4.983292,7.301147 8.459991,9.27124 8.459991,9.27124c0,0 1.622498,-3.59259 -4.056137,-9.850708c-4.172043,-6.721558 -11.704987,-22.482727 -7.64875,-56.902161c5.09919,-31.985779 6.953407,-39.634521 6.02626,-44.617798c4.403847,11.241394 10.198387,35.462463 12.400314,73.358643c1.274773,21.439758 3.70842,38.012024 6.489891,45.313171c2.897171,7.185181 7.416931,17.035889 7.416931,17.035889"/>
   <path fill="#3f7f00" fill-rule="nonzero" id="path42" d="m88.036484,280.526581c0.115906,0.695374 0.115906,1.506592 0.115906,2.433777c0,3.59259 -0.927048,9.27124 -2.897263,21.323853l-3.244904,20.280823c-0.811234,6.837463 -1.274765,13.09552 -1.274765,19.005981c0,16.22467 3.013069,29.320313 9.039429,38.939209c1.970123,2.085999 2.897263,3.708496 3.476715,5.099182c-1.390701,-1.390686 -3.129089,-3.244995 -5.215118,-6.258057c0,0 -1.738297,-2.433716 -1.738297,-2.433716c-6.953415,-10.198303 -25.727726,-37.200806 -36.505547,-46.35614c-11.47308,-9.734863 -22.135021,-25.843628 -28.740791,-43.343079l-3.013189,0.463562c-4.28794,54.004944 35.34659,84.831787 52.266577,98.159241l1.738411,1.27478c15.065773,11.820801 42.647713,28.045471 42.879433,28.161377l2.317818,-1.970154l-7.301125,-17.035889c-2.781357,-7.417053 -5.215012,-24.105225 -6.489792,-44.849609c-2.665543,-45.892639 -10.19838,-68.143616 -12.400314,-73.822266l-3.013184,0.927124zm0.347717,24.22113c1.27478,-7.301086 1.970116,-11.936707 2.433662,-15.645203c3.129066,10.893738 7.532936,31.290466 9.503044,64.551025c1.27478,20.976135 3.708519,38.012024 6.721695,45.776672c0,0 3.244888,7.532959 5.330917,12.632019c-8.22818,-4.983276 -26.886581,-16.45636 -38.359756,-25.379944l-1.738304,-1.390686c-15.645229,-12.284363 -51.33952,-40.098083 -51.33952,-87.613159c0,-0.579468 0,-1.158875 0,-1.738403c6.8375,15.761108 16.108742,30.015625 26.770679,39.055054c10.546021,8.807739 29.088509,35.694336 36.041908,45.776855l1.622505,2.433594c5.215111,7.417053 8.923615,9.618958 9.039429,9.734802l1.622498,0.927124l0.579437,-1.738403c0.347717,-0.463501 1.854294,-4.751465 -4.287964,-11.588989c-7.648743,-12.284424 -10.082382,-31.058594 -7.185211,-55.511536c0,0 3.24498,-20.280823 3.24498,-20.280823"/>
   <path fill="#3f7f00" fill-rule="nonzero" id="path44" d="m69.957619,339.051239c0,0 -9.503048,-14.833984 -18.078968,-24.568726c-8.575802,-9.502991 -46.472021,-52.382507 -26.88657,-124.698166c0,16.804199 2.317829,26.307159 4.056229,32.333496c1.970121,5.91037 20.744331,46.240219 22.59864,57.133957c1.85421,10.893799 4.98328,31.406372 9.38715,33.724121c1.622391,-1.042969 -0.231819,-4.635559 -0.811249,-7.996399c-0.695351,-3.244934 -6.142262,-31.290405 10.314213,-61.769638c14.949875,-26.77066 17.731239,-29.320313 19.933167,-38.591553c0.695343,17.499512 -4.983292,52.150742 -9.503052,66.752914c-4.40377,14.486389 -16.340569,48.210449 -11.00956,67.679993"/>
   <path fill="#3f7f00" fill-rule="nonzero" id="path46" d="m50.719791,315.641449c8.344097,9.387085 17.847149,24.105164 17.847149,24.221069l2.89727,-1.27478c-4.635674,-16.919983 4.519669,-45.892639 9.387146,-61.537842l1.622391,-5.215118c4.287971,-13.90683 10.314323,-49.021591 9.61898,-67.33226l-3.129089,-0.347717c-1.622498,6.373962 -3.360802,9.618866 -9.503052,20.164978l-10.314209,18.194794c-9.734779,17.962936 -11.936718,35.230637 -11.936718,47.28331c0,7.069275 0.81126,11.936707 1.27478,14.486328c-2.08601,-7.069336 -3.94022,-17.383606 -4.98328,-22.94635l-0.34763,-2.317871c-1.274879,-7.648743 -10.082489,-28.161331 -16.57238,-43.111221l-5.910431,-14.254517c-1.738319,-5.562744 -4.056149,-15.065704 -4.056149,-31.869904l-3.128981,-0.463531c-12.86386,47.3992 -3.129089,92.248856 27.234201,126.320633zm2.317837,-2.201904c-21.092049,-23.525757 -31.869879,-52.498413 -31.869879,-83.904739c0,-8.807617 1.158861,-17.731262 2.78137,-26.770691c0.811241,9.387146 2.317831,15.645233 3.592611,19.817261c0,0 6.14216,14.602173 6.14216,14.602173c6.026348,13.906921 15.18169,35.114853 16.340557,42.300064c0,0 0.347721,2.433655 0.347721,2.433655c2.897179,16.340576 5.562729,30.131592 9.966492,32.449341l0.811249,0.347717l0.811249,-0.463623c0.927151,-0.579468 1.274773,-1.622375 1.274773,-2.665466c0,-1.27478 -0.347622,-2.665466 -0.81115,-4.056152l-0.695343,-2.781372c-0.463627,-2.085999 -1.390778,-7.416992 -1.390778,-15.065735c0,-11.58905 2.201927,-28.277313 11.704987,-45.660843l10.198402,-18.078949c2.897171,-5.099182 4.867371,-8.459991 6.258072,-11.473175c-0.92717,18.774323 -5.562729,44.849625 -9.039543,56.438705l-1.622398,5.214996c-4.287941,13.559265 -10.89373,34.30365 -10.89373,51.339539c0,1.854248 0.463623,3.476746 0.695343,5.215027c-3.592613,-5.215027 -9.155354,-13.095581 -14.602165,-19.237732"/>
   <path fill="#3f7f00" fill-rule="nonzero" id="path48" d="m54.080589,251.090469c0,0 -5.678638,-23.062256 -12.632038,-41.488831c-6.953411,-18.542419 -20.280802,-61.537842 14.254539,-106.38739c-7.30114,17.847038 -4.40387,29.436127 -4.40387,31.40625c0,1.970123 4.287949,41.604645 4.40387,51.455444c0.115891,12.63205 -2.201931,34.419434 -2.201931,34.419434c0,0 0.81123,2.665436 2.549641,0c1.042969,-1.622498 3.360798,-29.783875 20.280796,-46.587952c15.645226,-15.645233 28.393166,-27.466034 31.869881,-33.955902c0,11.473083 -6.605789,28.393158 -12.05262,37.548492c-5.330994,9.271271 -27.466003,39.634552 -32.565208,49.832855c-4.983288,10.314301 -9.503059,22.482819 -9.503059,23.757599"/>
   <path fill="#3f7f00" fill-rule="nonzero" id="path50" d="m39.941959,210.181168c6.837601,18.078857 12.51622,41.141022 12.63205,41.372833l3.129082,-0.347626c0.115898,-1.274872 4.287949,-12.747955 9.38715,-23.062256c2.89727,-6.026276 11.820793,-19.121918 19.817261,-30.710907l12.63205,-19.121948c5.910431,-10.082489 12.168503,-27.002472 12.168503,-38.359741l-2.897263,-0.811249c-2.781364,5.215027 -11.820801,14.138641 -23.409882,25.495911l-8.22818,8.112274c-14.02282,13.906921 -18.31078,35.694305 -19.93317,43.80658c0,0 -0.347717,1.854309 -0.463638,2.665558c0.579529,-2.897278 2.433739,-33.144653 2.433739,-33.144653l-3.24498,-40.677612l-1.158859,-12.284424c-0.231819,-1.390656 -0.463539,-3.59259 -0.463539,-6.489777c0,-5.330994 0.927067,-13.095673 4.751488,-22.830437l-2.665459,-1.622505c-24.45295,31.869904 -29.32032,68.143616 -14.486359,108.009979l0.000008,0zm3.01318,-1.158966c-5.446831,-14.602173 -8.228199,-28.740814 -8.228199,-42.300018c0,-19.006012 5.678638,-36.853149 16.340569,-53.657249c-1.274868,5.330925 -1.854309,10.08239 -1.854309,13.559196c0,3.013092 0.231819,5.330933 0.347721,6.837494c0.23172,1.158875 1.158871,12.284424 1.158871,12.284424l3.360798,40.329895c0,0 -2.201931,34.187592 -2.201931,34.187592c0.231812,1.04306 0.811241,2.781372 2.433731,2.897278c1.15889,0.231812 2.201942,-0.463531 3.013191,-1.854218c0,0 1.042969,-4.172028 1.042969,-4.172028c1.62249,-7.880585 5.678631,-28.856812 19.006023,-42.068268c0,0 8.344177,-8.22821 8.344177,-8.22821c9.50296,-9.387146 15.992851,-16.108826 20.164886,-21.555664c-1.506584,10.893738 -6.837494,24.22113 -11.125458,31.522278l-12.516129,18.890106c-7.996468,11.589081 -17.035912,24.800568 -20.04908,30.942719c-3.01318,6.142273 -6.026352,13.559204 -7.880581,18.774292c-2.20192,-7.880554 -6.373959,-23.293976 -11.35725,-36.389618"/>
   <path fill="#3f7f00" fill-rule="nonzero" id="path52" d="m64.04718,172.516739c0,0 2.549637,-6.373993 0.231796,-32.101685c-2.433727,-25.727722 -3.476696,-60.842491 36.389641,-84.484203c-9.966576,16.688297 -11.589081,19.58559 -14.602257,33.260609c-3.013168,13.559158 -6.373962,35.34655 -11.820778,47.630974c-2.201935,6.026367 -3.592613,10.777832 -2.549652,11.357269c0.927147,0.579437 1.390678,-0.463516 2.086113,-2.54953c0.927063,-2.08606 9.039429,-20.512642 25.495819,-32.217613c16.456444,-11.70491 31.290436,-23.409889 36.853149,-34.99884c-2.43364,21.439621 -10.546021,29.088501 -18.658295,39.866241c-8.807709,11.704979 -40.445778,36.157829 -45.776787,44.154289c-5.446823,7.880554 -7.64875,10.082489 -7.64875,10.082489"/>
   <path fill="#3f7f00" fill-rule="nonzero" id="path54" d="m62.65649,140.53096c2.317837,24.684662 -0.115902,31.290436 -0.115902,31.290436l2.549652,1.854218l7.880547,-10.430115c2.433662,-3.592621 11.00956,-11.125458 19.933083,-19.121918c10.430222,-9.155365 21.208054,-18.658424 25.843628,-24.916473c0,0 3.244896,-4.172058 3.244896,-4.172058c6.953499,-8.923523 13.559196,-17.383606 15.761116,-36.389618l-3.013168,-0.927063c-5.562729,11.473083 -20.744324,23.293938 -36.389542,34.419434c-11.936707,8.459961 -19.46965,20.280762 -23.293976,27.350098c0.23172,-0.811157 0.347626,-1.042969 0.695335,-2.086029c4.17205,-9.27124 6.953423,-23.873413 9.618874,-36.621338l2.20192,-11.241394c3.013191,-13.211456 4.40387,-15.877007 14.486359,-32.797028l-2.201927,-2.201942c-42.879524,25.495918 -39.171005,64.89875 -37.200893,85.990791zm4.172047,18.658386c0,-4.751556 -0.23172,-10.893738 -1.042953,-18.890198c-0.463623,-4.983307 -0.927155,-11.009552 -0.927155,-17.615326c0,-18.774231 5.562721,-42.068199 30.131561,-60.147163c-6.142258,10.430122 -7.99646,14.949898 -10.430214,26.307144l-2.43364,11.241386c-2.433739,12.632019 -5.331009,27.002472 -9.387146,36.157806c-2.201927,5.910461 -3.013184,9.155334 -3.013184,11.009552c0,1.274872 0.463631,1.854309 1.158966,2.317841l0.579437,0.347717l1.390678,-0.115906c1.27478,-0.463623 1.854218,-1.854309 2.43364,-3.708527c0.811249,-1.854218 9.039528,-20.049072 24.916473,-31.406342c13.095665,-9.27124 25.495911,-19.121925 32.912933,-28.856689c-2.665543,12.63205 -7.764664,19.701355 -13.675095,27.350189l-3.244888,4.056145c-4.519775,6.026253 -15.529335,15.87693 -25.380104,24.568764c-9.502968,8.459991 -17.847061,15.761108 -20.512611,19.701355c0,0 -1.85421,2.549652 -3.70842,4.983307c0.115822,-1.970123 0.23172,-4.172058 0.23172,-7.301056"/>
   <path fill="#3f7f00" fill-rule="nonzero" id="path56" d="m93.831017,104.257217c0,0 5.215126,-27.234184 15.645226,-43.343048c10.43013,-16.108768 32.1017,-30.363289 54.932022,-37.432619c-7.996368,6.72171 -12.863739,12.74795 -15.645111,17.615351c-2.781372,4.75156 -20.049072,31.75399 -27.929642,40.329872c-8.112358,8.575897 -21.092041,16.340576 -27.002495,22.830444"/>
   <path fill="#3f7f00" fill-rule="nonzero" id="path58" d="m108.085571,59.987099c-10.43013,16.224678 -15.529312,42.879433 -15.761139,43.922493l2.781364,1.390686l11.589096,-9.850677l15.181679,-12.979767c8.228195,-8.807701 25.61171,-35.926022 28.277267,-40.561684c3.244904,-5.67865 8.344086,-11.473169 15.297485,-17.26762l-1.506561,-2.665569c-24.105225,7.417049 -45.42907,22.019188 -55.859192,38.012138zm2.781372,1.738312c8.807709,-13.675011 26.42305,-26.07534 46.587921,-33.839991c-4.056122,4.17206 -7.648743,8.34408 -10.082397,12.40024c-2.665543,4.519741 -19.817261,31.406342 -27.813736,40.098137c0,0 -19.585449,16.572304 -23.178055,19.585457c1.970123,-8.344086 6.837494,-26.422943 14.486267,-38.243843"/>
   <path fill="#3f7f00" fill-rule="nonzero" id="path60" d="m258.511414,550.898987c0,0 65.941589,-80.543793 146.021912,-60.49472c37.084961,14.022705 58.75647,23.989288 70.693176,25.843475c11.820862,1.970154 39.286865,3.476746 55.859253,-8.45993c-30.131592,28.972565 -58.75647,31.522186 -79.848602,28.045502c-21.207947,-3.476807 -42.647614,-20.049072 -48.210419,-24.337006c-5.562744,-4.287964 -26.422974,-27.466003 -64.782745,-11.125427c-28.045441,13.906769 -62.812592,53.54129 -68.607117,60.726532c-11.125458,-10.198425 -11.125458,-10.198425 -11.125458,-10.198425"/>
   <path fill="#3f7f00" fill-rule="nonzero" id="path62" d="m257.236542,549.856018l-0.927063,1.158875l13.559204,12.40033l1.042969,-1.390686c7.069305,-8.691772 41.141113,-46.819763 68.027679,-60.263031c33.724091,-14.370422 53.541382,2.781372 60.958405,9.271301l2.086029,1.738251c18.426575,14.022705 34.767151,22.366821 49.021667,24.684631c29.204346,4.635681 56.554565,-4.867371 81.007385,-28.277191c0.115906,-0.115906 0.115906,-0.115906 0.115906,-0.231812l-1.970093,-2.433655c-18.774353,13.443268 -51.107727,8.807587 -54.700378,8.228119c-7.764648,-1.27478 -19.81723,-6.026215 -38.127899,-13.327362l-32.217621,-12.516113c-80.312012,-20.164978 -147.180847,60.147125 -147.87619,60.958344zm146.949158,-57.94516l31.985779,12.516113c18.542389,7.301147 30.710907,12.168488 38.823273,13.443268c3.013184,0.463562 25.843506,3.592651 44.849548,-2.897278c-21.092041,16.456482 -43.922485,23.178101 -68.375336,19.237854c-13.559204,-2.201904 -29.552032,-10.198425 -47.283264,-23.873383c-0.231842,-0.115906 -2.201935,-1.738403 -2.201935,-1.738403c-7.880585,-6.837524 -28.740906,-24.916443 -64.435089,-9.618835c-26.538971,13.09549 -59.335907,49.253326 -68.02771,59.799347c-1.738403,-1.506592 -7.185242,-6.605774 -8.807709,-7.99646c5.910431,-6.953369 68.607239,-77.530609 143.472443,-58.872223"/>
   <path fill="#3f7f00" fill-rule="nonzero" id="path64" d="m419.714996,486.463959c0,0 44.038422,8.112366 60.494781,12.516235c16.572388,4.403748 72.315674,3.940186 103.606079,-46.240356c-25.264099,21.787415 -56.902222,22.598633 -69.534302,22.482727c-12.632019,-0.115906 -45.429077,5.562744 -61.306,9.039429c0.231812,-3.128967 16.340546,-7.069275 21.207977,-9.734741c4.751465,-2.665466 18.310669,-7.069336 33.955872,-43.690674c5.446838,-11.125488 6.142151,-17.383606 9.966614,-20.744446c-6.95343,1.27478 -20.164978,16.22467 -24.22113,20.62854c-4.172058,4.635559 -28.740845,34.303589 -42.879456,42.068237c-14.138611,7.996399 -21.207947,11.588989 -31.290436,13.675049"/>
   <path fill="#3f7f00" fill-rule="nonzero" id="path66" d="m493.884888,428.402802l-1.158875,1.27478l-3.129089,3.476807c-7.532837,8.691711 -27.466003,31.753967 -39.286835,38.243835c-14.370422,8.112305 -21.207947,11.473083 -30.94281,13.443298l0,3.129028c0.347717,0.115906 44.154327,8.228149 60.494843,12.516113c20.396729,5.562805 75.212952,1.390686 105.228516,-46.935547l-2.317749,-1.970154c-17.2677,14.833984 -40.329956,22.250916 -68.375427,22.019104c-11.009521,-0.115784 -34.99884,3.824463 -51.687134,7.069336c1.158875,-0.463562 2.433716,-0.927063 3.476685,-1.27478l8.691833,-3.476685l1.390686,-0.695374c5.562744,-2.781372 18.658386,-9.50293 33.376465,-43.690674l4.751465,-11.241333c1.622498,-4.287964 2.781372,-7.185242 4.635681,-8.923645l-1.274841,-2.781372c-6.026306,1.043091 -15.413452,10.546021 -23.873413,19.817261zm-42.068207,45.892639c12.284332,-6.95343 31.869781,-29.436157 40.213959,-39.055054l3.013123,-3.36084l1.274841,-1.390686c3.59259,-3.940247 11.936707,-12.863892 18.078857,-16.804138c-0.927124,1.738403 -2.085999,3.013184 -3.013184,5.446838l-4.635559,11.009644c-14.254517,33.260559 -26.654785,39.518616 -31.985779,42.299988l-1.390686,0.695374c0,0 -8.22821,3.244873 -8.22821,3.244873c-7.532898,2.665527 -10.893707,4.40387 -12.400299,6.258179c0,0 -0.115906,0.115784 -0.115906,0.115784l0,0c-0.347626,0.463623 -1.158875,0.927185 -1.27478,1.390808l-0.115906,2.201843l2.086029,-0.579468c14.833984,-3.244873 47.978699,-9.039429 60.958374,-8.923523c24.916504,0.115906 45.776794,-5.794556 62.465027,-17.2677c-29.89978,39.286926 -77.530701,42.879517 -96.073181,37.89624c-12.40033,-3.360901 -40.561707,-8.807739 -53.773193,-11.241394c7.069336,-2.31781 13.790924,-5.794556 24.916473,-11.936768zm57.829315,-42.76355l0,0"/>
   <path fill="#3f7f00" fill-rule="nonzero" id="path68" d="m500.25885,466.762543c0,0 21.671448,-6.721558 38.012024,-9.271179c16.456482,-2.665466 73.474609,-18.658325 94.103027,-86.570251c-21.903259,26.886597 -26.886536,28.625 -39.982117,35.694336c-13.095703,6.837524 -52.730225,30.595093 -66.405212,43.458923c-4.056274,2.433655 -4.056274,2.433655 -4.056274,2.433655c0,0 -1.158875,-1.622498 4.635681,-6.95343c5.910461,-5.446777 25.727722,-24.45282 27.929565,-65.825745c2.086121,-18.194763 5.794556,-34.767151 7.069336,-37.200806c-9.039429,5.562744 -19.353699,27.00238 -21.439697,32.912842c-2.085999,6.026367 -15.99292,47.978638 -17.731262,52.961914c-1.854309,4.983337 -13.211548,31.638184 -22.135071,38.359741"/>
   <path fill="#3f7f00" fill-rule="nonzero" id="path70" d="m538.618591,374.977386l-17.731201,52.961914c-2.317871,6.142151 -13.443298,31.406311 -21.671509,37.548523l1.390686,2.781311c0.231689,0 21.903259,-6.72168 38.012024,-9.27124c7.301147,-1.158875 72.779175,-13.67511 95.377808,-87.613159l-2.781372,-1.506592c-20.628479,25.264099 -25.959412,28.045471 -37.548462,34.187744l-2.08606,1.042969c-12.979736,6.953369 -48.326294,28.277283 -63.739746,41.372925c21.439758,-20.049072 27.234314,-47.283264 28.277283,-66.637024c2.085999,-18.658386 5.67865,-34.651245 6.837585,-36.505554l-2.31781,-2.201843c-9.734802,6.026245 -20.049072,28.393066 -22.019226,33.840027zm-14.718079,54.004883c0,0 17.731262,-52.961914 17.731262,-52.961914c1.738281,-5.099243 9.27124,-20.280823 16.688171,-28.161377c-1.738281,7.069336 -3.940186,19.006042 -5.446777,31.638062c-1.506592,27.466125 -10.661987,49.253479 -27.35022,64.898743c-4.056152,3.708374 -5.215027,6.142151 -5.215027,7.648743c0,0.579407 0.115906,1.158875 0.463501,1.506592l0.811279,1.042969l5.215088,-3.129028c13.559143,-12.632019 52.614197,-36.157837 66.289307,-43.458923l1.970154,-1.042969c10.31427,-5.44696 16.688232,-9.387146 32.101685,-27.466125c-24.452942,63.508057 -82.282288,75.212952 -89.119751,76.371765c-11.589111,1.854309 -25.727722,5.67865 -33.144653,7.880615c8.691711,-10.082397 17.49939,-30.595032 19.005981,-34.767151"/>
   <path fill="#3f7f00" fill-rule="nonzero" id="path72" d="m560.174194,410.323944c0,0 27.118347,-16.919983 42.068237,-29.204407c14.833984,-12.168518 56.786377,-44.270142 51.107727,-99.318176c-6.258057,17.963074 -16.572388,34.419556 -28.045532,44.617859c-11.473083,10.198364 -31.869873,42.068237 -36.737305,49.485229c-4.983276,7.416992 -8.344055,9.503052 -8.344055,9.503052c0,0 -1.738342,-3.592651 3.824402,-10.08252c3.940247,-6.605652 11.241394,-22.714539 6.258057,-56.902161c-5.794495,-31.985779 -7.764648,-39.518738 -7.069275,-44.386108c-4.056152,11.241394 -9.27124,35.462524 -10.546021,73.47467c-0.695374,21.555542 -2.897278,38.12793 -5.562744,45.428955c-2.665527,7.417053 -6.953491,17.383606 -6.953491,17.383606"/>
   <path fill="#3f7f00" fill-rule="nonzero" id="path74" d="m571.067932,347.511383c-0.695374,20.744263 -2.781372,37.548401 -5.446838,44.849487l-6.837585,17.383667l2.31781,1.970093c0.231812,-0.231812 27.35022,-17.151794 42.184204,-29.320313l1.738281,-1.390686c16.572388,-13.675049 55.511597,-45.429077 49.948853,-99.43396l-3.129089,-0.347717c-6.142151,17.847168 -16.22467,33.955872 -27.581909,44.038391c-10.546021,9.387146 -28.625,36.853149 -35.462524,47.283264l-1.622498,2.549683c-2.085999,3.013062 -3.708374,4.867371 -4.983276,6.258057c0.463623,-1.27478 1.274902,-2.897278 3.013184,-4.983276c5.562744,-9.27124 8.344116,-21.67157 8.344116,-36.737305c0,-6.72168 -0.463562,-13.906921 -1.622437,-21.439758c0,-0.115906 -3.824402,-20.628479 -3.824402,-20.628479c-2.31781,-12.284424 -3.360779,-17.847168 -3.360779,-21.323853c0,-0.695374 0,-1.390747 0.115906,-1.970154l-3.013184,-0.811249c-2.201965,5.794525 -9.155334,28.277313 -10.777832,74.054108zm-2.433655,46.008484c2.781372,-7.648865 4.983215,-24.800537 5.678528,-45.8927c1.158997,-33.260559 5.099182,-53.657288 7.99646,-64.666809c0.463623,3.59259 1.27478,8.228149 2.665466,15.18158l3.824402,20.512634c1.043091,7.532898 1.622498,14.602234 1.622498,21.092041c0,14.370422 -2.665527,26.191223 -7.764648,34.767151c-3.476685,4.056213 -4.287964,7.301086 -4.287964,9.27124c0,1.27478 0.347656,2.085999 0.463562,2.201904l0.695313,1.738403l1.506592,-0.927124c0.231812,-0.115906 3.824463,-2.433777 8.807739,-9.966614l1.738281,-2.549561c6.72168,-10.31427 24.568787,-37.548523 34.883057,-46.587952c10.314209,-9.27124 19.237854,-23.757568 25.611816,-39.634583c0.115784,1.274841 0.23175,2.665527 0.23175,3.940308c0,46.12439 -34.187622,74.169861 -49.369324,86.57019l-1.738342,1.390686c-11.241455,9.27124 -29.552124,21.207947 -37.664368,26.422974c1.970093,-4.983276 5.099182,-12.86377 5.099182,-12.86377"/>
   <path fill="#3f7f00" fill-rule="nonzero" id="path76" d="m604.212585,332.213776c0,0 9.155334,-15.065796 17.499512,-24.916504c8.344055,-9.734741 45.313171,-53.657242 23.989319,-125.393478c0.347595,16.804199 -1.622498,26.423065 -3.360901,32.449402c-1.738342,5.910339 -19.469543,46.703842 -21.092041,57.597488c-1.738342,11.009674 -4.40387,31.522308 -8.807617,33.955902c-1.506592,-0.927063 0.347595,-4.635559 0.811157,-7.880554c0.579529,-3.360779 5.330994,-31.638092 -11.820801,-61.537827c-15.529297,-26.307037 -18.426575,-28.972595 -20.744446,-38.12796c-0.347595,17.499451 6.258179,52.034882 10.893738,66.405197c4.867432,14.486359 17.615356,47.862885 12.63208,67.448334"/>
   <path fill="#3f7f00" fill-rule="nonzero" id="path78" d="m644.078918,181.903793c0,1.390686 0,2.897278 0,4.287964c0,11.009644 -1.043091,20.049072 -3.244873,27.697815l-5.794556,14.94989c-6.026367,14.94989 -14.254578,35.462479 -15.413513,42.879501l-0.463562,3.128967c-0.811218,5.67865 -2.31781,15.297668 -4.171997,22.019226c0.347717,-2.31781 0.927124,-6.258057 0.927124,-12.052612c0,-12.052612 -2.31781,-30.247391 -13.211548,-49.137589c0,0 -10.777771,-17.962952 -10.777771,-17.962952c-6.258179,-10.314301 -8.112366,-13.559204 -9.734863,-19.701355l-3.244873,0.347595c-0.231812,18.078979 6.605774,53.07785 11.125427,66.984726l1.854309,5.330933c5.215027,15.413422 15.065735,44.154327 10.777771,61.190216l2.897278,1.158875c0.115906,-0.115906 9.155334,-15.065796 17.383606,-24.684631c29.552063,-34.767181 38.12793,-79.848526 24.22113,-126.900101l-3.129089,0.463531zm-30.826904,125.393478c4.40387,-2.433655 6.72168,-15.992859 9.03949,-31.985657l0.463562,-3.013214c1.158875,-7.185242 9.618835,-28.277267 15.181702,-42.299973l5.910339,-15.181702c1.158936,-4.056152 2.31781,-11.125458 2.897278,-20.62851c2.31781,10.314301 3.708496,20.512604 3.708496,30.479187c0,30.13147 -10.08252,58.292953 -29.899719,81.586899c-5.215027,6.142151 -10.546082,14.022766 -14.022766,19.353638c0.115906,-1.274719 0.463562,-2.317688 0.463562,-3.592468c0,-17.151855 -7.301086,-38.591614 -12.052612,-52.382538l-1.854248,-5.330994c-3.708496,-11.589066 -8.807678,-37.316696 -10.198364,-55.975082c1.506592,2.897247 3.36084,6.142151 6.373962,11.009644l10.777832,17.962952c10.430115,18.310669 12.632019,35.810196 12.632019,47.399185c0,6.489868 -0.695313,11.241394 -0.927063,12.979797c-0.115906,0 -0.811218,3.013184 -0.811218,3.013184c-0.231812,1.390625 -0.695374,2.665405 -0.695374,3.82428c0,1.158997 0.347656,2.201965 1.390686,2.781372l0.811279,0.463623l0.811157,-0.463623"/>
   <path fill="#3f7f00" fill-rule="nonzero" id="path80" d="m618.003601,244.021133c0,0 5.214966,-23.293945 11.704895,-41.952362c6.489868,-18.658386 18.774292,-61.885529 -16.688232,-105.923828c7.648743,17.615326 5.099243,29.320213 5.215027,31.290344c0,1.970215 -3.476685,41.720551 -3.244873,51.57132c0.115906,12.63205 3.013184,34.303528 3.013184,34.303528c0,0 -0.811279,2.665466 -2.549683,0.115906c-1.158875,-1.738403 -4.056152,-29.783844 -21.323853,-46.12442c-16.108765,-15.18158 -29.08844,-26.654755 -32.68103,-33.144653c0.23175,11.589081 7.301025,28.161377 12.86377,37.316711c5.562805,9.039429 28.393188,38.939178 33.724182,49.021698c5.215027,10.082489 9.966614,22.135101 9.966614,23.525757"/>
   <path fill="#3f7f00" fill-rule="nonzero" id="path82" d="m611.513672,96.840286c4.63562,10.314217 5.446838,18.542397 5.446838,23.873413c0,2.31781 -0.115906,4.056122 -0.231689,5.215088l-0.927185,11.588989l-2.433716,41.488831c0,0 1.854309,21.092041 2.665527,30.247375c-1.970215,-8.923615 -6.605774,-29.667938 -20.860291,-42.9953c0,-0.115936 -8.807739,-8.460114 -8.807739,-8.460114c-11.588989,-10.893646 -20.744324,-19.469543 -23.525696,-24.45285l-3.013184,0.811249c0.231812,11.357269 6.95343,28.045471 13.095581,38.12796l13.211609,19.006012c8.228149,11.241364 17.383484,24.105225 20.396667,29.89978c5.446838,10.314209 9.734802,21.671478 9.850708,22.94632l3.244873,0.23172c0,-0.23172 5.215088,-23.409851 11.58905,-41.836456c14.022766,-39.866241 8.344116,-76.024086 -17.035889,-107.43042l-2.665466,1.738403zm5.67865,119.251221c1.622498,-0.231812 2.201965,-1.970123 2.31781,-2.317841c0,0 0,0 0,0c0,-1.27478 -3.013123,-34.767059 -3.013123,-34.767059l2.549561,-41.141113l0.695313,-10.430206c0.115906,-1.738319 0.347717,-3.940247 0.347717,-6.605675c0,-3.82444 -0.811218,-9.155342 -2.31781,-14.949905c11.58905,17.151802 17.731201,35.694221 17.731201,55.627388c0,12.863861 -2.433716,26.191254 -7.301086,39.982239c-4.63562,13.327393 -8.575928,28.85672 -10.430115,36.737274c-1.970154,-5.099213 -5.099243,-12.40033 -8.344116,-18.54248c-3.244995,-6.026276 -12.516113,-18.890137 -20.62854,-30.247375l-13.095581,-18.890228c-5.099182,-8.22818 -10.31427,-20.860229 -12.052551,-31.174438c4.287842,5.215027 10.893616,11.704895 20.512573,20.860229l8.923523,8.22818c13.559204,12.863861 17.963074,33.028839 19.817261,41.604767l1.158875,4.172028c0.927185,1.390686 1.970215,1.970123 3.129089,1.854218"/>
   <path fill="#3f7f00" fill-rule="nonzero" id="path84" d="m606.298584,165.563339c0,0 -2.665466,-6.258179 -0.927063,-31.985779c1.738342,-25.843628 1.970154,-60.958397 -38.359741,-83.672939c10.314209,16.572269 11.936707,19.46954 15.297485,33.028759c3.360779,13.443291 7.301147,35.114861 12.979797,47.283279c2.31781,6.026337 3.940186,10.661926 2.897278,11.241455c-1.043091,0.695343 -1.506592,-0.463608 -2.317871,-2.433746c-0.811218,-2.086029 -9.503052,-20.280777 -26.075317,-31.522148c-16.804138,-11.357262 -31.869873,-22.714531 -37.664429,-34.0718c2.781372,21.323837 11.125488,28.740768 19.469666,39.286789c9.039429,11.47319 41.256897,35.114868 46.819641,42.879517c5.67865,7.880493 7.880554,9.966614 7.880554,9.966614"/>
   <path fill="#3f7f00" fill-rule="nonzero" id="path86" d="m565.621094,50.831772c10.430115,16.688171 11.936707,19.353638 15.18158,32.44931l2.433777,10.661926c2.897278,12.863861 6.142151,27.466034 10.546021,36.968994c0.231812,0.579529 0.695313,1.738373 1.04303,2.665558c-3.708496,-6.72171 -11.473145,-18.890228 -24.22113,-27.466034c-15.877014,-10.661926 -31.406311,-22.251007 -37.084961,-33.376465l-3.013184,0.927055c2.549622,18.890205 9.27124,27.118416 16.572388,35.926125l3.244873,4.056122c4.867371,6.258087 15.99292,15.529327 26.53894,24.568756c9.155334,7.648743 17.731262,14.833984 20.280823,18.426575l8.112366,10.082489l2.549561,-1.854187c-0.115906,0 -2.549561,-6.489899 -0.811218,-31.174561c1.390625,-21.323853 4.056213,-60.842552 -39.170959,-85.179504l-2.201904,2.317841zm33.376465,91.901123c0.695313,-0.347717 1.042969,-1.04306 1.042969,-2.086029c0,-1.854309 -1.042969,-5.099213 -3.244934,-11.009628c-4.287903,-9.15535 -7.648743,-24.33696 -10.430176,-36.389565l-2.549561,-10.777832c-2.781372,-11.357269 -4.751465,-15.761139 -11.009521,-26.191261c25.49585,17.615364 31.522156,40.561707 31.522156,62.928528c0,4.867371 -0.231812,9.618866 -0.463562,14.254517c-0.463623,6.489899 -0.579407,11.704895 -0.579407,15.876953c0,4.635681 0.115784,7.764648 0.463501,10.314301c-1.970093,-2.433731 -3.940308,-4.867401 -3.940308,-4.867401c-2.781372,-3.824402 -11.125488,-10.893707 -20.860229,-19.006012c-10.08252,-8.459984 -21.439758,-18.078941 -26.191284,-23.989403l-3.244873,-4.172035c-6.026367,-7.416954 -11.241455,-14.254456 -14.254517,-26.770683c7.069336,8.923637 18.542419,17.847137 33.608154,27.929657c17.151794,11.704887 25.495911,30.710899 25.611816,30.826805c0.695374,1.854309 1.158875,3.129089 2.433777,3.476715l0.695313,0.347717l1.390686,-0.695343"/>
   <path fill="#3f7f00" fill-rule="nonzero" id="path88" d="m574.892334,98.115067c0,0 -5.794556,-27.00251 -16.688293,-42.879547c-10.661926,-15.87693 -32.681091,-29.55204 -55.62738,-36.04192c8.112305,6.48988 13.095581,12.400341 15.992859,17.15181c2.897278,4.751492 20.860352,31.29044 28.972595,39.634563c8.228271,8.459984 21.439758,15.761101 27.35022,22.135094"/>
   <path fill="#3f7f00" fill-rule="nonzero" id="path90" d="m501.53363,20.46838c8.807678,6.837601 13.327393,12.86385 15.645203,16.688278c2.781372,4.635593 20.860352,31.406345 29.320313,39.982182c0,0 15.529358,12.632141 15.529358,12.632141l11.820801,9.387016l2.665466,-1.390648c-0.23175,-1.158882 -6.026306,-27.466042 -16.920044,-43.4589c-10.777832,-15.761108 -32.44928,-29.783838 -56.554504,-36.621439l-1.506592,2.78137zm62.34906,66.752949l-15.18158,-12.400238c-8.112366,-8.228271 -26.075439,-34.998962 -28.740906,-39.28693c-2.433655,-3.94021 -6.142151,-7.99646 -10.430115,-12.168501c20.396729,7.3011 38.243835,19.237841 47.39917,32.79701c7.880554,11.589092 13.211487,29.436161 15.297546,37.780338c-3.476746,-2.897278 -8.344116,-6.72168 -8.344116,-6.72168"/>
  </g>
 </g>
</svg>